PathFileType	4	(X/Y/Z)	C:/Users/opensim2020/Desktop/walking_exp_matlab/subject03_walking14_straight_02.trc																																																																																																																																											
DataRate	CameraRate	NumFrames	NumMarkers	Units	OrigDataRate	OrigDataStartFrame	OrigNumFrames																																																																																																																																							
100	100	8	47	mm	100	1107	168																																																																																																																																							
Frame#	Time	LFHD			RFHD			LBHD			RBHD			C7			T10			CLAV			STRN			RBAK			LSHO			LUPA			LELB			LFRM			LWRA			LWRB			LFIN			RSHO			RUPA			RELB			RFRM			RWRA			RWRB			RFIN			LASI			RASI			LPSI			RPSI			LTHI			LKNE			LTIB			LANK			LHEE			LTOE			RTHI			RKNE			RTIB			RANK			RHEE			RTOE			*39			*40			*41			*42			*43			*44			*45			*46		
		X1	Y1	Z1	X2	Y2	Z2	X3	Y3	Z3	X4	Y4	Z4	X5	Y5	Z5	X6	Y6	Z6	X7	Y7	Z7	X8	Y8	Z8	X9	Y9	Z9	X10	Y10	Z10	X11	Y11	Z11	X12	Y12	Z12	X13	Y13	Z13	X14	Y14	Z14	X15	Y15	Z15	X16	Y16	Z16	X17	Y17	Z17	X18	Y18	Z18	X19	Y19	Z19	X20	Y20	Z20	X21	Y21	Z21	X22	Y22	Z22	X23	Y23	Z23	X24	Y24	Z24	X25	Y25	Z25	X26	Y26	Z26	X27	Y27	Z27	X28	Y28	Z28	X29	Y29	Z29	X30	Y30	Z30	X31	Y31	Z31	X32	Y32	Z32	X33	Y33	Z33	X34	Y34	Z34	X35	Y35	Z35	X36	Y36	Z36	X37	Y37	Z37	X38	Y38	Z38	X39	Y39	Z39	X40	Y40	Z40	X41	Y41	Z41	X42	Y42	Z42	X43	Y43	Z43	X44	Y44	Z44	X45	Y45	Z45	X46	Y46	Z46	X47	Y47	Z47
																																																																																																																																														
64	0.63	-342.36417	1614.98572	887.91309	-352.95078	1627.40845	1019.90002	-463.32318	1554.37134	887.43677	-468.69968	1566.51025	1017.68304	-479.7504	1401.73572	947.02319	-501.59668	1090.62061	949.29395	-351.32513	1335.96631	958.33643	-300.6828	1171.25964	959.81213	-527.81763	1226.54651	1044.33069	-389.04126	1368.7052	797.50916	-417.55487	1171.99463	724.8197	-432.68213	1049.7998	712.0907	-438.07776	919.29565	706.76923	-453.16516	798.57642	731.12872	-469.78128	812.16333	678.03284	-494.84875	727.2276	688.86096	-411.91473	1359.81152	1112.37952	-359.09421	1152.89209	1195.84546	-303.58896	1056.88379	1214.10229	-217.07278	951.98376	1215.95789	-137.42487	894.7334	1181.25574	-162.55402	867.77759	1219.83032	-99.58295	829.71912	1212.66052	-322.25626	939.40277	851.69287	-354.57077	923.10193	1085.81335	-491.0463	953.66992	878.16077	-507.79651	948.85339	1026.41199	-324.48163	639.61371	795.7124	-280.70068	469.40143	838.76904	-326.36584	273.16241	828.51581	-357.40137	65.987	867.15125	-403.32983	31.76339	897.81763	-210.25688	30.39314	906.81128	-398.28909	620.65912	1127.22095	-361.60577	443.26376	1113.29443	-514.87085	334.44507	1104.84131	-691.02118	217.72862	1052.99341	-731.69794	237.27971	993.52393	-665.39856	75.81792	1047.19202	-435.23257	1667.90894	928.37354	NaN	NaN	NaN	NaN	NaN	NaN	NaN	NaN	NaN	NaN	NaN	NaN	NaN	NaN	NaN	NaN	NaN	NaN	NaN	NaN	NaN
65	0.64	-329.49426	1616.57178	888.16046	-340.1243	1628.84009	1020.10339	-450.56546	1556.31189	887.45068	-456.05762	1568.33667	1017.66913	-467.41776	1403.36084	946.63971	-489.11679	1092.20972	948.25012	-339.09564	1337.64624	958.56079	-288.25967	1173.01038	959.90912	-516.01794	1227.54565	1042.41699	-375.7551	1370.42065	797.48322	-401.65866	1173.33899	724.61578	-415.27066	1050.98438	711.84833	-419.00165	920.43341	706.71002	-432.82797	799.7157	730.99695	-449.11084	812.83875	677.8255	-470.939	727.3808	688.0127	-400.86334	1361.01123	1112.57739	-349.62402	1152.89319	1195.10242	-294.77451	1056.2262	1212.93335	-210.0336	949.73279	1214.79822	-131.5256	890.79236	1179.97388	-157.04544	864.57666	1218.82947	-95.1497	824.47333	1211.02246	-309.56351	940.64575	850.91559	-341.85989	924.94482	1084.96997	-478.44495	955.36609	877.50031	-495.18292	950.53723	1025.70081	-314.99225	640.21936	795.59027	-275.38419	468.66968	838.82495	-323.81635	272.99408	828.35669	-357.37946	66.12546	866.9389	-403.2605	32.00163	897.95203	-210.19109	30.27317	906.86096	-379.68607	622.78607	1126.03784	-338.06033	446.74902	1112.65002	-489.99927	336.96863	1102.88916	-664.16705	217.32791	1050.02551	-705.8446	234.89137	990.41937	-633.22742	76.40697	1045.11523	-422.25476	1669.79565	928.58746	NaN	NaN	NaN	NaN	NaN	NaN	NaN	NaN	NaN	NaN	NaN	NaN	NaN	NaN	NaN	NaN	NaN	NaN	NaN	NaN	NaN
66	0.65	-316.63373	1618.01465	888.40576	-327.37341	1630.25916	1020.37823	-437.83206	1558.24792	887.5177	-443.49875	1570.16553	1017.76093	-455.09213	1404.98181	946.26135	-476.62985	1093.86267	947.18903	-327.01837	1339.18811	958.82721	-275.94519	1174.79407	959.98553	-504.26511	1228.77319	1040.85608	-362.52341	1372.22009	797.48639	-385.72449	1174.80408	724.52148	-397.54041	1052.24866	711.69385	-399.50479	921.72113	706.82593	-412.00223	800.91882	731.10321	-427.67401	813.57458	677.81537	-446.22983	727.83331	687.21124	-389.93347	1362.28711	1112.79102	-340.38943	1152.96741	1194.30298	-286.32352	1055.55139	1211.74866	-203.60445	947.38306	1213.65735	-126.1936	886.7417	1178.89038	-152.2616	861.1969	1217.87573	-91.61337	819.08453	1209.61121	-297.17477	941.98035	849.94629	-329.06812	927.54523	1083.63965	-465.96796	956.91272	876.93805	-482.56973	952.513	1025.16626	-305.65305	640.62958	795.56952	-270.43924	468.05289	838.84259	-321.71982	273.01221	828.23389	-357.04236	66.36005	867.06067	-403.26242	32.51683	897.85358	-210.13918	30.19104	906.94519	-360.94165	625.10632	1124.82898	-314.84549	450.42291	1111.87744	-464.91806	338.33664	1101.25244	-636.53363	215.0367	1047.14429	-679.14453	230.82468	987.41077	-599.53497	75.97746	1043.09509	-409.22284	1671.60876	928.70374	NaN	NaN	NaN	NaN	NaN	NaN	NaN	NaN	NaN	NaN	NaN	NaN	NaN	NaN	NaN	NaN	NaN	NaN	NaN	NaN	NaN
67	0.66	-303.80597	1619.65063	888.79889	-314.69913	1631.66382	1020.78076	-425.24368	1560.19348	887.71899	-431.01038	1571.95984	1017.96088	-442.92548	1406.63416	945.92072	-464.09323	1095.42139	946.18109	-314.95135	1340.91943	959.04492	-263.69	1176.64001	960.00549	-492.4657	1230.10767	1039.67505	-349.44437	1374.11011	797.59338	-369.62314	1176.42664	724.76825	-379.65909	1053.7157	711.69977	-379.60516	923.12848	707.1665	-391.27924	802.34344	731.4566	-405.7312	814.52087	677.99878	-420.72333	728.55347	686.67566	-378.80313	1363.49878	1112.88696	-331.27695	1153.03442	1193.54993	-278.36722	1054.86804	1210.5918	-197.8203	944.97577	1212.51648	-121.78507	882.34949	1177.5603	-148.3028	857.73279	1216.98865	-88.86372	813.65259	1208.36389	-284.84064	943.31415	848.78546	-315.93997	929.91016	1082.4259	-453.6311	958.42694	876.49799	-469.90833	954.7475	1024.75	-296.89938	640.89941	795.5824	-266.06815	467.50168	838.88068	-320.04007	273.10052	828.19409	-356.92789	66.61481	867.11115	-403.24225	32.94847	897.9411	-210.10695	30.10158	906.98145	-342.32062	627.61304	1123.70532	-292.26993	454.21957	1110.99475	-439.84207	338.72363	1099.56348	-608.14063	211.09607	1044.4563	-651.88232	225.01862	984.59827	-564.57666	74.25965	1040.35352	-396.29395	1673.46057	929.28662	NaN	NaN	NaN	NaN	NaN	NaN	NaN	NaN	NaN	NaN	NaN	NaN	NaN	NaN	NaN	NaN	NaN	NaN	NaN	NaN	NaN
68	0.67	-291.13303	1621.08887	889.27728	-302.06195	1632.99707	1021.20422	-412.61407	1562.06128	887.93536	-418.54114	1573.58264	1018.15851	-430.78909	1408.21887	945.56183	-451.72668	1097.00671	945.26135	-302.92172	1342.59424	959.29999	-251.44815	1178.4762	959.98846	-480.69818	1231.56372	1038.81067	-336.45139	1376.03784	797.74359	-353.73569	1178.12952	724.76361	-361.86887	1055.28406	711.77393	-359.35455	924.698	707.57751	-369.82516	803.47614	732.47388	-383.0715	815.67133	678.29077	-394.5386	729.60443	686.29022	-367.72311	1364.55273	1112.92798	-322.35092	1153.16223	1192.66748	-270.79962	1054.14746	1209.45422	-192.60428	942.46313	1211.45862	-117.80629	877.99249	1176.65369	-145.05838	854.11652	1216.09375	-86.93686	808.17291	1207.34875	-272.83145	944.67426	847.60553	-303.07721	932.43158	1081.34937	-441.34402	959.80304	876.09338	-457.1954	957.01172	1024.37756	-288.62231	640.98285	795.72107	-262.11066	466.98792	838.79919	-318.33344	273.29749	828.19818	-356.78806	66.98837	867.1825	-403.25934	33.49238	898.03619	-210.07904	30.07012	907.04706	-323.97888	630.17114	1122.51062	-270.30652	458.07361	1110.09119	-414.5842	338.19498	1097.74341	-579.01501	205.79465	1041.87817	-623.76941	217.38129	982.01166	-528.12036	71.62229	1037.44971	-383.31808	1675.00659	929.50891	NaN	NaN	NaN	NaN	NaN	NaN	NaN	NaN	NaN	NaN	NaN	NaN	NaN	NaN	NaN	NaN	NaN	NaN	NaN	NaN	NaN
69	0.68	-278.46866	1622.53149	889.7677	-289.53098	1634.19873	1021.73029	-400.14972	1563.79724	888.26288	-406.08459	1575.1145	1018.47968	-418.73856	1409.75513	945.27588	-439.44159	1098.47717	944.39038	-290.95212	1344.1864	959.52441	-239.21007	1180.16626	959.92554	-468.97305	1233.03455	1038.16309	-323.51245	1377.95349	797.92725	-337.92978	1179.90552	724.76636	-343.51453	1056.90576	711.82196	-338.7103	926.46631	708.19128	-346.94363	805.33356	733.15149	-359.86804	817.01483	678.78918	-367.84055	731.00757	686.12347	-356.59421	1365.922	1112.83667	-313.45349	1153.2572	1191.8053	-263.57791	1053.31763	1208.26953	-187.93347	939.83112	1210.42102	-114.47818	873.56439	1175.92224	-142.50609	850.31586	1215.23877	-85.58551	802.63983	1206.41455	-261.02722	945.74384	846.36652	-290.11539	934.95673	1080.24036	-429.16837	961.13391	875.78271	-444.44739	959.16699	1024.1145	-281.04263	640.92834	795.81805	-258.70261	466.57278	838.74152	-316.62115	273.5018	828.34003	-356.68365	67.39391	867.29346	-402.61978	33.66735	899.04572	-209.9955	29.99783	907.07025	-305.9826	632.87555	1121.9541	-249.15492	461.86133	1108.79541	-389.18546	337.00708	1095.91345	-548.97882	199.061	1039.41321	-594.91156	208.26619	979.90442	-490.26099	68.49734	1034.41785	-370.66248	1676.70605	930.36139	NaN	NaN	NaN	NaN	NaN	NaN	NaN	NaN	NaN	NaN	NaN	NaN	NaN	NaN	NaN	NaN	NaN	NaN	NaN	NaN	NaN
70	0.69	-265.77631	1623.8324	890.3493	-277.01282	1635.26831	1022.33221	-387.6553	1565.42017	888.54071	-393.72363	1576.49438	1018.81122	-406.59119	1411.10217	945.04694	-427.14374	1099.84387	943.65369	-279.01633	1345.62122	959.72113	-227.0376	1181.71729	959.74188	-457.16861	1234.43213	1037.6532	-310.76782	1379.82178	798.1861	-322.00638	1181.77014	724.73871	-325.41949	1058.67322	711.8858	-317.90506	928.31549	708.80884	-324.11685	807.19891	733.97046	-336.22034	818.54382	679.41376	-340.40897	732.57544	686.10791	-345.34763	1367.04041	1112.77747	-304.73584	1153.33081	1191.04199	-256.67307	1052.39746	1207.1001	-183.73064	937.0636	1209.41235	-111.68886	868.89136	1175.26147	-140.63161	846.42072	1214.38147	-84.96201	797.03888	1205.75342	-249.27502	946.58844	845.06421	-277.17181	937.38556	1079.17358	-416.86664	962.2663	875.39209	-431.69769	961.23041	1023.85358	-274.11395	640.99316	796.10468	-255.2088	466.24371	838.53851	-315.08432	273.83258	828.46521	-356.54865	67.89114	867.46991	-402.66647	34.88862	898.9906	-209.88068	29.98516	907.0545	-288.32791	635.59039	1121.38245	-228.36214	465.63318	1107.6875	-363.78278	335.18622	1094.19421	-518.0542	190.95125	1037.09363	-565.19653	197.71603	977.96844	-450.99911	65.05789	1031.52759	-357.74362	1678.58984	930.83337	NaN	NaN	NaN	NaN	NaN	NaN	NaN	NaN	NaN	NaN	NaN	NaN	NaN	NaN	NaN	NaN	NaN	NaN	NaN	NaN	NaN
71	0.7	-253.15422	1625.03918	891.00043	-264.51089	1636.10461	1023.07928	-375.14719	1566.91882	888.93146	-381.33322	1577.66138	1019.15601	-394.55386	1412.33362	944.85608	-414.905	1101.09094	942.91956	-267.05853	1346.8927	959.92889	-214.91264	1183.11169	959.58813	-445.29926	1235.67957	1037.16956	-298.09766	1381.56946	798.46698	-306.314	1183.59729	724.6778	-307.15671	1060.38672	711.99084	-296.6965	930.26361	709.40411	-300.65439	809.18042	734.90887	-312.0827	820.14233	680.16986	-313.23962	734.54987	686.63055	-334.05899	1367.99866	1112.72253	-295.88492	1153.14307	1189.95398	-249.97324	1051.27588	1205.93103	-180.00493	934.13452	1208.37024	-109.34073	864.24438	1174.67322	-139.26495	842.32739	1213.47363	-84.95369	791.44281	1205.1958	-237.60941	947.27795	843.82275	-264.27036	939.57678	1078.21082	-404.82196	963.41119	875.29193	-419.05933	963.04462	1023.67859	-267.25793	641.05975	796.37024	-251.7357	465.96481	838.35254	-313.76056	274.18246	828.56927	-356.46899	68.55634	867.70862	-402.74643	35.618	899.27649	-209.79604	29.92059	907.03943	-270.96979	638.26227	1120.97595	-208.17264	469.23779	1106.31226	-338.50653	332.90598	1092.63428	-486.21219	182.14211	1035.0752	-534.00037	185.72153	976.59088	-410.87991	61.33719	1029.06848	-345.16302	1679.53613	931.50049	NaN	NaN	NaN	NaN	NaN	NaN	NaN	NaN	NaN	NaN	NaN	NaN	NaN	NaN	NaN	NaN	NaN	NaN	NaN	NaN	NaN
